<?xml version="1.0" encoding="UTF-8"?>
<svg xmlns="http://www.w3.org/2000/svg" viewBox="0 0 512 512" width="512" height="512" role="img" aria-label="GodotItch robot face icon">
  <defs>
    <linearGradient id="bg" x1="0" x2="1" y1="0" y2="1">
      <stop offset="0" stop-color="#00C6FF"/>
      <stop offset="1" stop-color="#0072FF"/>
    </linearGradient>
    <linearGradient id="robot" x1="0" x2="1">
      <stop offset="0" stop-color="#ffffff"/>
      <stop offset="1" stop-color="#f0f0f0"/>
    </linearGradient>
  </defs>

  <!-- background -->
  <rect x="8" y="8" width="496" height="496" rx="64" ry="64" fill="url(#bg)"/>

  <!-- central robot face -->
  <g transform="translate(128,128)">
    <rect x="0" y="0" width="256" height="256" rx="32" ry="32" fill="url(#robot)"/>
    <!-- eyes -->
    <ellipse cx="96" cy="96" rx="32" ry="24" fill="#0072FF"/>
    <ellipse cx="160" cy="96" rx="32" ry="24" fill="#0072FF"/>
    <circle cx="96" cy="96" r="16" fill="#ffffff"/>
    <circle cx="160" cy="96" r="16" fill="#ffffff"/>
    <circle cx="96" cy="96" r="8" fill="#0072FF"/>
    <circle cx="160" cy="96" r="8" fill="#0072FF"/>
    <!-- mouth -->
    <rect x="112" y="160" width="32" height="16" rx="8" ry="8" fill="#0072FF"/>
    <!-- antenna -->
    <rect x="120" y="-32" width="16" height="48" rx="8" ry="8" fill="#ffffff"/>
    <circle cx="128" cy="-40" r="12" fill="#ffffff"/>
  </g>

  <!-- subtle shadow -->
  <ellipse cx="256" cy="400" rx="160" ry="32" fill="#000000" opacity="0.08"/>
</svg>
